<svg xmlns="http://www.w3.org/2000/svg" xmlns:xlink="http://www.w3.org/1999/xlink" width="500" zoomAndPan="magnify" viewBox="0 0 375 374.999991" height="500" preserveAspectRatio="xMidYMid meet" version="1.0"><defs><clipPath id="38c250c7f2"><path d="M 106 112.503906 L 269 112.503906 L 269 143 L 106 143 Z M 106 112.503906 " clip-rule="nonzero"/></clipPath><clipPath id="4205babc05"><path d="M 74 187 L 301 187 L 301 262.503906 L 74 262.503906 Z M 74 187 " clip-rule="nonzero"/></clipPath><clipPath id="50782a13bf"><path d="M 73.003906 148 L 301.753906 148 L 301.753906 229 L 73.003906 229 Z M 73.003906 148 " clip-rule="nonzero"/></clipPath></defs><g clip-path="url(#38c250c7f2)"><path fill="#000000" d="M 129.039062 141.632812 L 245.972656 141.632812 C 252.679688 141.632812 260.738281 142.160156 268.511719 142.828125 L 260.898438 127.3125 C 260.363281 126.210938 259.753906 125.15625 259.074219 124.140625 C 258.390625 123.128906 257.640625 122.164062 256.824219 121.257812 C 256.007812 120.347656 255.132812 119.5 254.195312 118.710938 C 253.261719 117.925781 252.273438 117.207031 251.238281 116.558594 C 250.203125 115.910156 249.128906 115.335938 248.011719 114.839844 C 246.894531 114.339844 245.75 113.921875 244.574219 113.582031 C 243.402344 113.246094 242.207031 112.992188 241 112.820312 C 239.789062 112.648438 238.570312 112.5625 237.351562 112.5625 L 137.617188 112.5625 C 136.394531 112.5625 135.175781 112.644531 133.964844 112.816406 C 132.753906 112.988281 131.5625 113.242188 130.386719 113.578125 C 129.210938 113.914062 128.0625 114.332031 126.945312 114.832031 C 125.828125 115.328125 124.753906 115.902344 123.714844 116.550781 C 122.679688 117.199219 121.691406 117.917969 120.753906 118.707031 C 119.820312 119.492188 118.941406 120.339844 118.125 121.25 C 117.308594 122.160156 116.558594 123.125 115.875 124.140625 C 115.195312 125.152344 114.585938 126.210938 114.050781 127.3125 L 106.507812 142.828125 C 114.269531 142.160156 122.332031 141.632812 129.039062 141.632812 Z M 129.039062 141.632812 " fill-opacity="1" fill-rule="nonzero"/></g><g clip-path="url(#4205babc05)"><path fill="#000000" d="M 250.617188 235.183594 C 233.347656 235.183594 220.0625 230.582031 209.992188 221.136719 C 201.132812 212.820312 196.152344 201.96875 192.078125 191.484375 L 192.035156 191.363281 L 192.035156 191.230469 C 191.34375 189.238281 189.472656 187.429688 187.53125 187.234375 C 185.582031 187.429688 183.710938 189.238281 183.027344 191.230469 L 182.984375 191.363281 L 182.929688 191.484375 C 178.867188 201.96875 173.878906 212.820312 165.027344 221.136719 C 154.957031 230.609375 141.664062 235.183594 124.402344 235.183594 C 110.863281 235.183594 85.382812 230.152344 74.433594 216.472656 L 74.433594 228.617188 C 74.433594 229.152344 74.460938 229.6875 74.515625 230.222656 C 74.566406 230.757812 74.644531 231.289062 74.75 231.816406 C 74.855469 232.339844 74.984375 232.859375 75.140625 233.375 C 75.296875 233.890625 75.476562 234.394531 75.683594 234.890625 C 75.886719 235.386719 76.117188 235.871094 76.371094 236.34375 C 76.625 236.816406 76.898438 237.277344 77.199219 237.722656 C 77.496094 238.171875 77.816406 238.601562 78.15625 239.015625 C 78.496094 239.429688 78.855469 239.828125 79.238281 240.207031 C 79.617188 240.585938 80.011719 240.949219 80.429688 241.289062 C 80.84375 241.628906 81.273438 241.949219 81.71875 242.246094 C 82.167969 242.542969 82.625 242.820312 83.101562 243.074219 C 83.574219 243.328125 84.058594 243.554688 84.554688 243.761719 C 85.050781 243.964844 85.554688 244.148438 86.070312 244.304688 C 86.582031 244.457031 87.101562 244.589844 87.628906 244.695312 C 88.15625 244.796875 88.6875 244.878906 89.222656 244.929688 C 89.753906 244.984375 90.289062 245.007812 90.828125 245.007812 L 90.828125 258.390625 C 90.828125 258.652344 90.851562 258.914062 90.90625 259.171875 C 90.957031 259.429688 91.03125 259.683594 91.132812 259.925781 C 91.234375 260.167969 91.359375 260.398438 91.503906 260.617188 C 91.648438 260.839844 91.816406 261.039062 92.003906 261.226562 C 92.1875 261.414062 92.390625 261.578125 92.609375 261.726562 C 92.828125 261.871094 93.0625 261.996094 93.304688 262.097656 C 93.546875 262.199219 93.800781 262.273438 94.058594 262.324219 C 94.316406 262.375 94.578125 262.402344 94.839844 262.402344 L 121.550781 262.402344 C 121.8125 262.402344 122.074219 262.375 122.332031 262.324219 C 122.589844 262.273438 122.839844 262.199219 123.085938 262.097656 C 123.328125 261.996094 123.558594 261.871094 123.777344 261.726562 C 123.996094 261.578125 124.199219 261.414062 124.386719 261.226562 C 124.574219 261.039062 124.738281 260.839844 124.886719 260.617188 C 125.03125 260.398438 125.15625 260.167969 125.257812 259.925781 C 125.355469 259.683594 125.433594 259.429688 125.484375 259.171875 C 125.535156 258.914062 125.5625 258.652344 125.5625 258.390625 L 125.5625 252.339844 C 125.5625 252.035156 125.589844 251.730469 125.652344 251.433594 C 125.710938 251.132812 125.800781 250.839844 125.914062 250.558594 C 126.03125 250.277344 126.175781 250.007812 126.347656 249.753906 C 126.515625 249.5 126.707031 249.265625 126.925781 249.050781 C 127.140625 248.832031 127.375 248.640625 127.628906 248.472656 C 127.882812 248.300781 128.152344 248.15625 128.433594 248.042969 C 128.714844 247.925781 129.007812 247.835938 129.308594 247.777344 C 129.605469 247.714844 129.910156 247.6875 130.214844 247.6875 L 244.75 247.6875 C 245.058594 247.6875 245.359375 247.714844 245.660156 247.777344 C 245.957031 247.835938 246.25 247.925781 246.53125 248.042969 C 246.8125 248.15625 247.082031 248.300781 247.335938 248.472656 C 247.589844 248.640625 247.824219 248.832031 248.042969 249.050781 C 248.257812 249.265625 248.449219 249.5 248.621094 249.753906 C 248.789062 250.007812 248.933594 250.277344 249.050781 250.558594 C 249.167969 250.839844 249.253906 251.132812 249.316406 251.433594 C 249.375 251.730469 249.40625 252.035156 249.40625 252.339844 L 249.40625 258.390625 C 249.40625 258.652344 249.429688 258.914062 249.484375 259.171875 C 249.535156 259.429688 249.613281 259.679688 249.710938 259.925781 C 249.8125 260.167969 249.9375 260.398438 250.082031 260.617188 C 250.230469 260.835938 250.394531 261.039062 250.582031 261.222656 C 250.769531 261.410156 250.972656 261.578125 251.191406 261.722656 C 251.410156 261.871094 251.640625 261.992188 251.882812 262.09375 C 252.125 262.195312 252.375 262.273438 252.636719 262.324219 C 252.894531 262.375 253.152344 262.402344 253.417969 262.402344 L 280.214844 262.402344 C 280.476562 262.402344 280.738281 262.375 280.996094 262.324219 C 281.253906 262.273438 281.503906 262.195312 281.75 262.09375 C 281.992188 261.992188 282.222656 261.871094 282.441406 261.722656 C 282.660156 261.578125 282.863281 261.410156 283.046875 261.222656 C 283.234375 261.039062 283.402344 260.835938 283.546875 260.617188 C 283.695312 260.398438 283.816406 260.167969 283.917969 259.925781 C 284.019531 259.679688 284.097656 259.429688 284.148438 259.171875 C 284.199219 258.914062 284.226562 258.652344 284.226562 258.390625 L 284.226562 245.007812 C 284.761719 245.007812 285.296875 244.984375 285.832031 244.929688 C 286.367188 244.878906 286.898438 244.796875 287.425781 244.695312 C 287.949219 244.589844 288.46875 244.457031 288.984375 244.304688 C 289.496094 244.148438 290.003906 243.964844 290.5 243.761719 C 290.992188 243.554688 291.480469 243.324219 291.953125 243.074219 C 292.425781 242.820312 292.886719 242.542969 293.332031 242.246094 C 293.777344 241.949219 294.207031 241.628906 294.625 241.289062 C 295.039062 240.945312 295.433594 240.585938 295.816406 240.207031 C 296.195312 239.828125 296.554688 239.429688 296.894531 239.015625 C 297.234375 238.601562 297.554688 238.167969 297.851562 237.722656 C 298.148438 237.277344 298.425781 236.816406 298.679688 236.34375 C 298.929688 235.871094 299.160156 235.386719 299.367188 234.890625 C 299.570312 234.394531 299.75 233.886719 299.90625 233.375 C 300.0625 232.859375 300.191406 232.339844 300.296875 231.8125 C 300.402344 231.289062 300.480469 230.757812 300.53125 230.222656 C 300.585938 229.6875 300.609375 229.152344 300.609375 228.617188 L 300.609375 216.472656 C 289.625 230.152344 264.144531 235.183594 250.617188 235.183594 Z M 250.617188 235.183594 " fill-opacity="1" fill-rule="nonzero"/></g><g clip-path="url(#50782a13bf)"><path fill="#ffffff" d="M 301.726562 156.996094 C 301.460938 154.363281 300.707031 152.941406 297.335938 152.605469 C 295.710938 152.605469 291.320312 152.140625 285.761719 151.554688 C 274.683594 150.414062 257.9375 148.648438 245.972656 148.648438 C 231.921875 148.648438 219.5 151.449219 208.523438 153.914062 C 200.386719 155.742188 193.40625 157.339844 187.601562 157.339844 L 187.363281 157.339844 C 181.570312 157.339844 174.582031 155.769531 166.484375 153.941406 C 155.519531 151.476562 143.078125 148.675781 129.039062 148.675781 C 117.027344 148.675781 100.285156 150.429688 89.203125 151.605469 C 83.644531 152.195312 79.265625 152.660156 77.632812 152.660156 C 74.257812 152.96875 73.511719 154.417969 73.242188 157.050781 C 73.003906 159.175781 73.003906 164.292969 73.003906 167.675781 C 73.003906 170.308594 74.355469 171.1875 75.550781 171.441406 C 78.273438 172.449219 79.660156 174.144531 80.273438 177.199219 C 81.003906 182.75 84.515625 200.5625 87.386719 207.972656 C 93.644531 222.902344 111.214844 228.167969 124.359375 228.167969 C 158.277344 228.167969 168.628906 208.800781 176.34375 188.921875 C 178.925781 181.433594 181.535156 175.226562 187.363281 175.226562 L 187.601562 175.226562 C 193.441406 175.226562 196.046875 181.433594 198.621094 188.921875 C 206.339844 208.800781 216.699219 228.167969 250.617188 228.167969 C 263.785156 228.167969 281.347656 222.902344 287.582031 207.972656 C 290.453125 200.5625 293.972656 182.75 294.691406 177.246094 C 295.308594 174.1875 296.683594 172.496094 299.425781 171.484375 C 300.609375 171.246094 301.960938 170.394531 301.960938 167.71875 C 301.960938 164.292969 301.960938 159.175781 301.726562 156.996094 Z M 161.992188 203.53125 C 150.902344 219.933594 136.792969 222.199219 123.183594 222.199219 C 95.964844 222.199219 90.222656 202.101562 90.222656 185.242188 C 90.222656 158.023438 101.453125 155.320312 129.039062 155.320312 C 148.976562 155.320312 170.464844 161.535156 170.464844 175.171875 C 170.464844 184.734375 166.179688 196.691406 161.992188 203.53125 Z M 251.785156 222.199219 C 238.183594 222.199219 224.066406 219.933594 212.984375 203.53125 C 208.796875 196.691406 204.519531 184.734375 204.519531 175.171875 C 204.519531 161.535156 225.988281 155.320312 245.929688 155.320312 C 273.515625 155.320312 284.753906 158.023438 284.753906 185.242188 C 284.753906 202.117188 279.027344 222.199219 251.785156 222.199219 Z M 251.785156 222.199219 " fill-opacity="1" fill-rule="nonzero"/></g><path fill="#000000" d="M 132.367188 168.023438 C 131.792969 168.023438 131.222656 168.054688 130.65625 168.109375 C 130.085938 168.164062 129.519531 168.25 128.960938 168.359375 C 128.398438 168.472656 127.84375 168.613281 127.296875 168.777344 C 126.75 168.945312 126.210938 169.136719 125.683594 169.355469 C 125.15625 169.574219 124.636719 169.820312 124.132812 170.089844 C 123.628906 170.359375 123.140625 170.652344 122.664062 170.96875 C 122.1875 171.289062 121.730469 171.628906 121.289062 171.992188 C 120.847656 172.355469 120.421875 172.738281 120.019531 173.144531 C 119.613281 173.546875 119.230469 173.972656 118.867188 174.414062 C 118.503906 174.855469 118.164062 175.316406 117.847656 175.789062 C 117.53125 176.265625 117.238281 176.757812 116.96875 177.261719 C 116.699219 177.765625 116.453125 178.28125 116.234375 178.808594 C 116.015625 179.339844 115.824219 179.878906 115.660156 180.425781 C 115.492188 180.972656 115.355469 181.527344 115.246094 182.085938 C 115.132812 182.648438 115.050781 183.214844 114.996094 183.78125 C 114.9375 184.351562 114.910156 184.921875 114.910156 185.496094 C 114.910156 186.066406 114.941406 186.636719 114.996094 187.207031 C 115.054688 187.777344 115.136719 188.339844 115.25 188.902344 C 115.363281 189.460938 115.5 190.015625 115.667969 190.5625 C 115.835938 191.109375 116.027344 191.648438 116.246094 192.175781 C 116.464844 192.703125 116.710938 193.222656 116.980469 193.726562 C 117.25 194.230469 117.546875 194.71875 117.863281 195.195312 C 118.183594 195.667969 118.523438 196.128906 118.886719 196.570312 C 119.25 197.011719 119.632812 197.433594 120.039062 197.835938 C 120.445312 198.242188 120.867188 198.625 121.3125 198.988281 C 121.753906 199.347656 122.210938 199.6875 122.6875 200.007812 C 123.164062 200.324219 123.65625 200.617188 124.160156 200.886719 C 124.664062 201.152344 125.179688 201.398438 125.710938 201.617188 C 126.238281 201.832031 126.777344 202.027344 127.324219 202.191406 C 127.871094 202.355469 128.425781 202.492188 128.988281 202.605469 C 129.550781 202.714844 130.113281 202.796875 130.683594 202.851562 C 131.253906 202.910156 131.824219 202.9375 132.394531 202.933594 C 132.96875 202.933594 133.539062 202.90625 134.105469 202.847656 C 134.675781 202.789062 135.242188 202.707031 135.800781 202.59375 C 136.363281 202.480469 136.917969 202.339844 137.464844 202.171875 C 138.011719 202.007812 138.546875 201.8125 139.078125 201.59375 C 139.605469 201.375 140.121094 201.128906 140.625 200.859375 C 141.128906 200.585938 141.617188 200.292969 142.09375 199.972656 C 142.566406 199.65625 143.027344 199.3125 143.46875 198.949219 C 143.910156 198.585938 144.332031 198.203125 144.734375 197.796875 C 145.136719 197.390625 145.519531 196.96875 145.882812 196.523438 C 146.246094 196.082031 146.585938 195.621094 146.902344 195.144531 C 147.21875 194.667969 147.511719 194.179688 147.777344 193.671875 C 148.046875 193.167969 148.289062 192.652344 148.507812 192.121094 C 148.726562 191.59375 148.917969 191.054688 149.082031 190.507812 C 149.246094 189.960938 149.382812 189.40625 149.492188 188.84375 C 149.605469 188.28125 149.6875 187.71875 149.742188 187.148438 C 149.796875 186.578125 149.824219 186.007812 149.820312 185.4375 C 149.820312 184.867188 149.789062 184.296875 149.734375 183.726562 C 149.675781 183.160156 149.589844 182.597656 149.476562 182.035156 C 149.367188 181.476562 149.226562 180.925781 149.058594 180.378906 C 148.890625 179.832031 148.699219 179.296875 148.480469 178.769531 C 148.261719 178.242188 148.015625 177.726562 147.746094 177.226562 C 147.476562 176.722656 147.183594 176.234375 146.863281 175.761719 C 146.546875 175.285156 146.207031 174.828125 145.84375 174.386719 C 145.480469 173.945312 145.097656 173.523438 144.691406 173.121094 C 144.289062 172.71875 143.867188 172.335938 143.425781 171.976562 C 142.984375 171.613281 142.523438 171.273438 142.050781 170.957031 C 141.574219 170.640625 141.085938 170.347656 140.582031 170.078125 C 140.078125 169.8125 139.5625 169.566406 139.035156 169.351562 C 138.507812 169.132812 137.972656 168.941406 137.425781 168.773438 C 136.878906 168.609375 136.324219 168.46875 135.765625 168.359375 C 135.207031 168.25 134.640625 168.164062 134.074219 168.109375 C 133.507812 168.054688 132.9375 168.023438 132.367188 168.023438 Z M 132.367188 188.5625 C 131.769531 188.5625 131.175781 188.5 130.589844 188.382812 C 130.003906 188.265625 129.4375 188.09375 128.882812 187.863281 C 128.332031 187.632812 127.808594 187.351562 127.3125 187.019531 C 126.816406 186.683594 126.355469 186.308594 125.933594 185.882812 C 125.511719 185.460938 125.136719 185 124.804688 184.503906 C 124.472656 184.003906 124.195312 183.480469 123.964844 182.925781 C 123.738281 182.375 123.566406 181.804688 123.449219 181.21875 C 123.335938 180.632812 123.277344 180.039062 123.277344 179.441406 C 123.28125 178.84375 123.339844 178.253906 123.457031 177.667969 C 123.574219 177.082031 123.746094 176.511719 123.976562 175.960938 C 124.207031 175.40625 124.488281 174.882812 124.820312 174.386719 C 125.152344 173.890625 125.53125 173.429688 125.953125 173.007812 C 126.378906 172.585938 126.839844 172.210938 127.335938 171.878906 C 127.832031 171.546875 128.359375 171.269531 128.910156 171.039062 C 129.464844 170.8125 130.03125 170.640625 130.621094 170.523438 C 131.207031 170.410156 131.796875 170.351562 132.394531 170.351562 C 132.992188 170.351562 133.585938 170.410156 134.171875 170.527344 C 134.757812 170.644531 135.328125 170.820312 135.878906 171.050781 C 136.429688 171.277344 136.953125 171.558594 137.449219 171.890625 C 137.949219 172.226562 138.40625 172.601562 138.828125 173.027344 C 139.25 173.449219 139.628906 173.910156 139.960938 174.40625 C 140.292969 174.902344 140.570312 175.429688 140.800781 175.980469 C 141.027344 176.535156 141.199219 177.101562 141.316406 177.691406 C 141.433594 178.277344 141.488281 178.867188 141.488281 179.464844 C 141.488281 180.0625 141.429688 180.65625 141.3125 181.242188 C 141.195312 181.828125 141.019531 182.398438 140.792969 182.953125 C 140.5625 183.503906 140.28125 184.027344 139.949219 184.523438 C 139.613281 185.023438 139.234375 185.480469 138.8125 185.90625 C 138.390625 186.328125 137.929688 186.703125 137.429688 187.035156 C 136.933594 187.367188 136.40625 187.648438 135.855469 187.875 C 135.300781 188.101562 134.730469 188.273438 134.144531 188.390625 C 133.558594 188.503906 132.964844 188.5625 132.367188 188.5625 Z M 132.367188 188.5625 " fill-opacity="1" fill-rule="evenodd"/><path fill="#000000" d="M 242.601562 168.023438 C 242.027344 168.023438 241.457031 168.050781 240.886719 168.105469 C 240.316406 168.160156 239.753906 168.242188 239.191406 168.355469 C 238.628906 168.464844 238.074219 168.601562 237.527344 168.769531 C 236.980469 168.933594 236.441406 169.125 235.910156 169.34375 C 235.382812 169.5625 234.867188 169.804688 234.359375 170.074219 C 233.855469 170.34375 233.363281 170.636719 232.890625 170.953125 C 232.414062 171.269531 231.953125 171.609375 231.511719 171.972656 C 231.066406 172.335938 230.644531 172.71875 230.238281 173.121094 C 229.832031 173.527344 229.449219 173.949219 229.085938 174.390625 C 228.722656 174.832031 228.378906 175.292969 228.0625 175.765625 C 227.742188 176.242188 227.449219 176.734375 227.179688 177.238281 C 226.910156 177.742188 226.664062 178.257812 226.445312 178.785156 C 226.226562 179.316406 226.03125 179.851562 225.867188 180.398438 C 225.699219 180.949219 225.558594 181.5 225.449219 182.0625 C 225.335938 182.625 225.25 183.1875 225.195312 183.757812 C 225.140625 184.328125 225.109375 184.898438 225.109375 185.472656 C 225.109375 186.042969 225.136719 186.613281 225.195312 187.183594 C 225.25 187.753906 225.332031 188.320312 225.445312 188.878906 C 225.554688 189.441406 225.695312 189.996094 225.859375 190.542969 C 226.027344 191.089844 226.21875 191.628906 226.4375 192.15625 C 226.65625 192.6875 226.902344 193.203125 227.171875 193.707031 C 227.441406 194.210938 227.734375 194.703125 228.050781 195.179688 C 228.371094 195.652344 228.710938 196.113281 229.074219 196.554688 C 229.4375 196.996094 229.820312 197.421875 230.226562 197.824219 C 230.628906 198.230469 231.054688 198.613281 231.496094 198.976562 C 231.9375 199.339844 232.398438 199.679688 232.875 199.996094 C 233.351562 200.316406 233.839844 200.609375 234.34375 200.878906 C 234.851562 201.148438 235.367188 201.390625 235.894531 201.609375 C 236.425781 201.828125 236.960938 202.019531 237.511719 202.1875 C 238.058594 202.351562 238.613281 202.492188 239.171875 202.601562 C 239.734375 202.714844 240.300781 202.796875 240.871094 202.851562 C 241.441406 202.90625 242.011719 202.933594 242.582031 202.933594 C 243.15625 202.933594 243.726562 202.90625 244.296875 202.847656 C 244.863281 202.792969 245.429688 202.707031 245.992188 202.59375 C 246.550781 202.484375 247.105469 202.34375 247.652344 202.175781 C 248.199219 202.007812 248.738281 201.816406 249.265625 201.597656 C 249.796875 201.378906 250.3125 201.132812 250.816406 200.863281 C 251.320312 200.589844 251.808594 200.296875 252.285156 199.976562 C 252.761719 199.660156 253.21875 199.316406 253.660156 198.953125 C 254.101562 198.589844 254.523438 198.207031 254.929688 197.800781 C 255.332031 197.394531 255.714844 196.972656 256.078125 196.527344 C 256.441406 196.085938 256.78125 195.625 257.097656 195.148438 C 257.414062 194.671875 257.707031 194.183594 257.976562 193.675781 C 258.246094 193.171875 258.488281 192.652344 258.707031 192.125 C 258.921875 191.597656 259.113281 191.058594 259.28125 190.507812 C 259.445312 189.960938 259.582031 189.40625 259.691406 188.84375 C 259.800781 188.285156 259.886719 187.71875 259.941406 187.148438 C 259.996094 186.578125 260.019531 186.007812 260.019531 185.4375 C 260.019531 184.867188 259.988281 184.296875 259.933594 183.730469 C 259.875 183.164062 259.789062 182.601562 259.679688 182.042969 C 259.566406 181.484375 259.425781 180.929688 259.261719 180.386719 C 259.09375 179.839844 258.902344 179.304688 258.683594 178.777344 C 258.464844 178.25 258.21875 177.738281 257.949219 177.234375 C 257.679688 176.734375 257.386719 176.246094 257.070312 175.769531 C 256.753906 175.296875 256.414062 174.839844 256.050781 174.398438 C 255.691406 173.960938 255.308594 173.539062 254.90625 173.132812 C 254.5 172.730469 254.078125 172.347656 253.640625 171.988281 C 253.199219 171.625 252.742188 171.285156 252.265625 170.96875 C 251.792969 170.652344 251.304688 170.359375 250.800781 170.089844 C 250.300781 169.820312 249.785156 169.578125 249.257812 169.359375 C 248.734375 169.140625 248.195312 168.949219 247.652344 168.78125 C 247.105469 168.617188 246.554688 168.476562 245.996094 168.367188 C 245.4375 168.253906 244.875 168.167969 244.304688 168.113281 C 243.738281 168.054688 243.171875 168.027344 242.601562 168.023438 Z M 242.601562 188.5625 C 242.003906 188.5625 241.410156 188.503906 240.824219 188.386719 C 240.238281 188.269531 239.667969 188.097656 239.113281 187.867188 C 238.5625 187.640625 238.039062 187.359375 237.539062 187.027344 C 237.042969 186.695312 236.582031 186.316406 236.160156 185.894531 C 235.738281 185.472656 235.359375 185.011719 235.027344 184.515625 C 234.695312 184.015625 234.417969 183.492188 234.1875 182.9375 C 233.957031 182.386719 233.785156 181.816406 233.667969 181.230469 C 233.554688 180.644531 233.496094 180.050781 233.496094 179.453125 C 233.496094 178.855469 233.554688 178.265625 233.671875 177.675781 C 233.789062 177.089844 233.960938 176.519531 234.191406 175.96875 C 234.417969 175.417969 234.699219 174.890625 235.03125 174.394531 C 235.363281 173.898438 235.742188 173.4375 236.164062 173.015625 C 236.589844 172.59375 237.046875 172.214844 237.546875 171.882812 C 238.042969 171.550781 238.566406 171.273438 239.121094 171.042969 C 239.671875 170.816406 240.242188 170.640625 240.828125 170.527344 C 241.414062 170.410156 242.007812 170.351562 242.605469 170.351562 C 243.203125 170.351562 243.796875 170.410156 244.382812 170.527344 C 244.96875 170.644531 245.539062 170.816406 246.089844 171.046875 C 246.644531 171.277344 247.167969 171.558594 247.664062 171.890625 C 248.160156 172.222656 248.621094 172.601562 249.042969 173.023438 C 249.464844 173.445312 249.84375 173.90625 250.175781 174.40625 C 250.507812 174.902344 250.785156 175.425781 251.015625 175.980469 C 251.242188 176.53125 251.414062 177.101562 251.53125 177.6875 C 251.648438 178.273438 251.707031 178.867188 251.703125 179.464844 C 251.703125 180.0625 251.644531 180.65625 251.527344 181.242188 C 251.410156 181.828125 251.238281 182.394531 251.007812 182.945312 C 250.78125 183.5 250.5 184.023438 250.167969 184.519531 C 249.835938 185.015625 249.457031 185.476562 249.035156 185.898438 C 248.613281 186.320312 248.152344 186.699219 247.65625 187.027344 C 247.160156 187.359375 246.632812 187.640625 246.082031 187.871094 C 245.53125 188.097656 244.960938 188.269531 244.375 188.386719 C 243.789062 188.503906 243.199219 188.5625 242.601562 188.5625 Z M 242.601562 188.5625 " fill-opacity="1" fill-rule="evenodd"/></svg>