<svg xmlns="http://www.w3.org/2000/svg" xmlns:xlink="http://www.w3.org/1999/xlink" width="500" zoomAndPan="magnify" viewBox="0 0 375 374.999991" height="500" preserveAspectRatio="xMidYMid meet" version="1.0"><defs><clipPath id="ab754cfe7a"><path d="M 97 103.914062 L 278 103.914062 L 278 138 L 97 138 Z M 97 103.914062 " clip-rule="nonzero"/></clipPath><clipPath id="a0e2b53283"><path d="M 59.886719 144 L 314.886719 144 L 314.886719 233 L 59.886719 233 Z M 59.886719 144 " clip-rule="nonzero"/></clipPath><clipPath id="876875fcab"><path d="M 150 231.589844 L 224.976562 231.589844 L 224.976562 247.339844 L 150 247.339844 Z M 150 231.589844 " clip-rule="nonzero"/></clipPath><clipPath id="65e89047c7"><path d="M 120 124.210938 L 163 124.210938 L 163 143.710938 L 120 143.710938 Z M 120 124.210938 " clip-rule="nonzero"/></clipPath><clipPath id="3e235e6610"><path d="M 212 124.210938 L 255 124.210938 L 255 143.710938 L 212 143.710938 Z M 212 124.210938 " clip-rule="nonzero"/></clipPath></defs><g clip-path="url(#ab754cfe7a)"><path fill="#000000" d="M 122.34375 136.375 L 252.675781 136.375 C 260.152344 136.375 269.136719 136.960938 277.796875 137.707031 L 269.3125 120.414062 C 268.714844 119.1875 268.039062 118.011719 267.277344 116.878906 C 266.515625 115.75 265.683594 114.679688 264.773438 113.664062 C 263.863281 112.652344 262.886719 111.707031 261.84375 110.828125 C 260.800781 109.953125 259.699219 109.152344 258.546875 108.429688 C 257.390625 107.707031 256.191406 107.066406 254.949219 106.511719 C 253.703125 105.957031 252.429688 105.488281 251.121094 105.113281 C 249.808594 104.734375 248.480469 104.453125 247.132812 104.261719 C 245.785156 104.070312 244.425781 103.976562 243.066406 103.972656 L 131.90625 103.972656 C 130.542969 103.972656 129.183594 104.066406 127.835938 104.257812 C 126.484375 104.449219 125.15625 104.730469 123.84375 105.105469 C 122.535156 105.484375 121.257812 105.949219 120.011719 106.503906 C 118.765625 107.058594 117.566406 107.699219 116.410156 108.421875 C 115.253906 109.144531 114.15625 109.945312 113.113281 110.820312 C 112.066406 111.699219 111.089844 112.644531 110.179688 113.660156 C 109.269531 114.671875 108.433594 115.746094 107.671875 116.878906 C 106.910156 118.007812 106.234375 119.1875 105.636719 120.414062 L 97.230469 137.707031 C 105.882812 136.960938 114.867188 136.375 122.34375 136.375 Z M 122.34375 136.375 " fill-opacity="1" fill-rule="nonzero"/></g><path fill="#000000" d="M 257.851562 240.648438 C 238.601562 240.648438 223.796875 235.519531 212.570312 224.988281 C 202.699219 215.722656 197.148438 203.625 192.609375 191.941406 L 192.558594 191.804688 L 192.558594 191.65625 C 191.785156 189.4375 189.703125 187.421875 187.539062 187.203125 C 185.367188 187.421875 183.28125 189.4375 182.519531 191.65625 L 182.46875 191.804688 L 182.410156 191.941406 C 177.878906 203.625 172.320312 215.722656 162.457031 224.988281 C 151.230469 235.546875 136.414062 240.648438 117.175781 240.648438 C 102.085938 240.648438 73.6875 235.039062 61.484375 219.792969 L 61.484375 233.328125 C 61.484375 233.925781 61.511719 234.523438 61.570312 235.117188 C 61.628906 235.714844 61.71875 236.304688 61.835938 236.890625 C 61.949219 237.476562 62.097656 238.058594 62.269531 238.628906 C 62.445312 239.203125 62.644531 239.765625 62.875 240.320312 C 63.101562 240.871094 63.359375 241.410156 63.640625 241.941406 C 63.921875 242.46875 64.230469 242.980469 64.5625 243.476562 C 64.894531 243.976562 65.25 244.453125 65.628906 244.917969 C 66.011719 245.378906 66.410156 245.824219 66.835938 246.246094 C 67.257812 246.667969 67.699219 247.070312 68.164062 247.449219 C 68.625 247.828125 69.105469 248.1875 69.601562 248.519531 C 70.101562 248.851562 70.613281 249.15625 71.140625 249.441406 C 71.667969 249.722656 72.210938 249.976562 72.761719 250.207031 C 73.316406 250.4375 73.878906 250.636719 74.449219 250.8125 C 75.023438 250.984375 75.601562 251.128906 76.191406 251.246094 C 76.777344 251.363281 77.367188 251.449219 77.964844 251.507812 C 78.558594 251.566406 79.15625 251.597656 79.753906 251.597656 L 79.753906 266.511719 C 79.753906 266.804688 79.78125 267.097656 79.839844 267.382812 C 79.898438 267.671875 79.980469 267.953125 80.09375 268.222656 C 80.207031 268.496094 80.34375 268.753906 80.507812 268.996094 C 80.671875 269.242188 80.855469 269.464844 81.0625 269.675781 C 81.273438 269.882812 81.496094 270.066406 81.742188 270.230469 C 81.984375 270.394531 82.242188 270.53125 82.515625 270.644531 C 82.785156 270.753906 83.066406 270.839844 83.355469 270.898438 C 83.640625 270.957031 83.933594 270.984375 84.226562 270.984375 L 113.996094 270.984375 C 114.289062 270.984375 114.582031 270.957031 114.867188 270.898438 C 115.15625 270.839844 115.4375 270.753906 115.707031 270.644531 C 115.980469 270.53125 116.234375 270.394531 116.480469 270.230469 C 116.726562 270.066406 116.949219 269.882812 117.15625 269.675781 C 117.367188 269.464844 117.550781 269.242188 117.714844 268.996094 C 117.878906 268.753906 118.015625 268.496094 118.128906 268.222656 C 118.238281 267.953125 118.324219 267.671875 118.382812 267.382812 C 118.4375 267.097656 118.46875 266.804688 118.46875 266.511719 L 118.46875 259.769531 C 118.46875 259.429688 118.5 259.089844 118.566406 258.757812 C 118.632812 258.421875 118.734375 258.097656 118.863281 257.785156 C 118.992188 257.46875 119.152344 257.171875 119.34375 256.886719 C 119.53125 256.605469 119.746094 256.34375 119.988281 256.101562 C 120.226562 255.859375 120.488281 255.644531 120.773438 255.457031 C 121.054688 255.265625 121.355469 255.105469 121.667969 254.976562 C 121.984375 254.847656 122.308594 254.75 122.644531 254.683594 C 122.976562 254.617188 123.3125 254.582031 123.65625 254.582031 L 251.316406 254.582031 C 251.65625 254.582031 251.992188 254.617188 252.328125 254.683594 C 252.660156 254.75 252.984375 254.847656 253.300781 254.976562 C 253.613281 255.109375 253.914062 255.265625 254.195312 255.457031 C 254.480469 255.644531 254.742188 255.859375 254.984375 256.101562 C 255.222656 256.34375 255.4375 256.605469 255.628906 256.886719 C 255.816406 257.171875 255.976562 257.46875 256.105469 257.785156 C 256.238281 258.097656 256.335938 258.421875 256.402344 258.757812 C 256.46875 259.089844 256.5 259.429688 256.5 259.769531 L 256.5 266.511719 C 256.503906 266.804688 256.53125 267.09375 256.589844 267.382812 C 256.648438 267.671875 256.730469 267.949219 256.84375 268.222656 C 256.957031 268.492188 257.09375 268.75 257.257812 268.992188 C 257.421875 269.238281 257.605469 269.464844 257.8125 269.671875 C 258.023438 269.878906 258.246094 270.0625 258.492188 270.226562 C 258.734375 270.390625 258.992188 270.527344 259.265625 270.640625 C 259.535156 270.753906 259.8125 270.839844 260.101562 270.894531 C 260.390625 270.953125 260.679688 270.984375 260.972656 270.984375 L 290.839844 270.984375 C 291.132812 270.984375 291.425781 270.953125 291.714844 270.894531 C 292 270.839844 292.28125 270.753906 292.550781 270.640625 C 292.820312 270.527344 293.078125 270.390625 293.324219 270.226562 C 293.566406 270.0625 293.792969 269.878906 294 269.671875 C 294.207031 269.464844 294.394531 269.238281 294.558594 268.992188 C 294.71875 268.75 294.859375 268.492188 294.96875 268.222656 C 295.082031 267.949219 295.167969 267.671875 295.226562 267.382812 C 295.285156 267.09375 295.3125 266.804688 295.3125 266.511719 L 295.3125 251.597656 C 295.910156 251.597656 296.507812 251.566406 297.105469 251.507812 C 297.699219 251.449219 298.289062 251.363281 298.878906 251.246094 C 299.464844 251.128906 300.042969 250.984375 300.617188 250.8125 C 301.1875 250.636719 301.75 250.4375 302.304688 250.207031 C 302.855469 249.976562 303.398438 249.722656 303.925781 249.441406 C 304.453125 249.15625 304.964844 248.851562 305.460938 248.519531 C 305.960938 248.183594 306.4375 247.828125 306.902344 247.449219 C 307.363281 247.070312 307.804688 246.667969 308.230469 246.246094 C 308.652344 245.824219 309.054688 245.378906 309.433594 244.917969 C 309.8125 244.453125 310.167969 243.972656 310.5 243.476562 C 310.832031 242.980469 311.140625 242.464844 311.421875 241.9375 C 311.703125 241.410156 311.957031 240.871094 312.1875 240.316406 C 312.414062 239.765625 312.617188 239.203125 312.789062 238.628906 C 312.964844 238.058594 313.109375 237.476562 313.226562 236.890625 C 313.339844 236.304688 313.429688 235.710938 313.488281 235.117188 C 313.546875 234.523438 313.574219 233.925781 313.574219 233.328125 L 313.574219 219.792969 C 301.332031 235.039062 272.933594 240.648438 257.851562 240.648438 Z M 257.851562 240.648438 " fill-opacity="1" fill-rule="nonzero"/><g clip-path="url(#a0e2b53283)"><path fill="#ffffff" d="M 314.816406 153.5 C 314.523438 150.566406 313.683594 148.980469 309.925781 148.609375 C 308.113281 148.609375 303.21875 148.089844 297.027344 147.433594 C 284.675781 146.160156 266.015625 144.195312 252.675781 144.195312 C 237.015625 144.195312 223.171875 147.316406 210.9375 150.066406 C 201.867188 152.101562 194.085938 153.882812 187.617188 153.882812 L 187.351562 153.882812 C 180.894531 153.882812 173.105469 152.132812 164.082031 150.09375 C 151.859375 147.347656 137.992188 144.222656 122.34375 144.222656 C 108.957031 144.222656 90.292969 146.179688 77.945312 147.492188 C 71.75 148.148438 66.867188 148.667969 65.046875 148.667969 C 61.289062 149.007812 60.457031 150.625 60.152344 153.558594 C 59.886719 155.929688 59.886719 161.632812 59.886719 165.402344 C 59.886719 168.335938 61.394531 169.316406 62.726562 169.597656 C 65.761719 170.726562 67.304688 172.613281 67.992188 176.019531 C 68.804688 182.203125 72.71875 202.058594 75.917969 210.320312 C 82.894531 226.957031 102.476562 232.828125 117.128906 232.828125 C 154.929688 232.828125 166.46875 211.238281 175.070312 189.082031 C 177.949219 180.734375 180.855469 173.816406 187.351562 173.816406 L 187.617188 173.816406 C 194.125 173.816406 197.03125 180.734375 199.898438 189.082031 C 208.5 211.238281 220.046875 232.828125 257.851562 232.828125 C 272.53125 232.828125 292.105469 226.957031 299.050781 210.320312 C 302.25 202.058594 306.175781 182.203125 306.980469 176.066406 C 307.664062 172.664062 309.199219 170.773438 312.253906 169.648438 C 313.574219 169.382812 315.082031 168.433594 315.082031 165.449219 C 315.082031 161.632812 315.082031 155.929688 314.816406 153.5 Z M 159.070312 205.367188 C 146.710938 223.648438 130.984375 226.171875 115.816406 226.171875 C 85.480469 226.171875 79.078125 203.773438 79.078125 184.984375 C 79.078125 154.644531 91.59375 151.632812 122.34375 151.632812 C 144.566406 151.632812 168.515625 158.5625 168.515625 173.757812 C 168.515625 184.414062 163.738281 197.746094 159.070312 205.367188 Z M 259.152344 226.171875 C 243.996094 226.171875 228.257812 223.648438 215.910156 205.367188 C 211.242188 197.746094 206.476562 184.414062 206.476562 173.757812 C 206.476562 158.5625 230.402344 151.632812 252.625 151.632812 C 283.375 151.632812 295.902344 154.644531 295.902344 184.984375 C 295.902344 203.792969 289.519531 226.171875 259.152344 226.171875 Z M 259.152344 226.171875 " fill-opacity="1" fill-rule="nonzero"/></g><path fill="#000000" d="M 126.050781 165.792969 C 125.414062 165.792969 124.777344 165.824219 124.144531 165.886719 C 123.511719 165.949219 122.878906 166.042969 122.253906 166.167969 C 121.628906 166.292969 121.011719 166.445312 120.402344 166.632812 C 119.792969 166.816406 119.191406 167.03125 118.605469 167.273438 C 118.015625 167.519531 117.4375 167.792969 116.875 168.09375 C 116.316406 168.394531 115.769531 168.71875 115.238281 169.074219 C 114.707031 169.429688 114.199219 169.808594 113.703125 170.214844 C 113.210938 170.617188 112.742188 171.046875 112.289062 171.496094 C 111.839844 171.949219 111.410156 172.417969 111.007812 172.914062 C 110.605469 173.40625 110.222656 173.917969 109.871094 174.449219 C 109.515625 174.976562 109.191406 175.523438 108.890625 176.085938 C 108.589844 176.648438 108.316406 177.222656 108.074219 177.8125 C 107.832031 178.402344 107.617188 179.003906 107.429688 179.613281 C 107.246094 180.222656 107.09375 180.839844 106.96875 181.464844 C 106.84375 182.089844 106.75 182.722656 106.691406 183.355469 C 106.628906 183.992188 106.597656 184.625 106.597656 185.265625 C 106.597656 185.902344 106.628906 186.539062 106.691406 187.171875 C 106.757812 187.804688 106.851562 188.4375 106.976562 189.0625 C 107.101562 189.6875 107.253906 190.304688 107.441406 190.914062 C 107.625 191.523438 107.839844 192.121094 108.085938 192.710938 C 108.332031 193.300781 108.605469 193.875 108.90625 194.4375 C 109.207031 195 109.535156 195.546875 109.890625 196.074219 C 110.242188 196.605469 110.625 197.117188 111.027344 197.609375 C 111.433594 198.101562 111.863281 198.570312 112.3125 199.019531 C 112.765625 199.472656 113.238281 199.898438 113.730469 200.300781 C 114.222656 200.707031 114.734375 201.085938 115.265625 201.4375 C 115.796875 201.792969 116.34375 202.117188 116.90625 202.417969 C 117.46875 202.71875 118.042969 202.988281 118.632812 203.230469 C 119.222656 203.476562 119.824219 203.6875 120.433594 203.875 C 121.042969 204.058594 121.660156 204.210938 122.285156 204.335938 C 122.914062 204.457031 123.542969 204.550781 124.175781 204.613281 C 124.8125 204.671875 125.449219 204.703125 126.085938 204.703125 C 126.722656 204.703125 127.359375 204.667969 127.992188 204.605469 C 128.628906 204.542969 129.257812 204.445312 129.882812 204.320312 C 130.507812 204.195312 131.125 204.039062 131.734375 203.855469 C 132.34375 203.667969 132.941406 203.453125 133.53125 203.207031 C 134.121094 202.960938 134.695312 202.6875 135.257812 202.386719 C 135.816406 202.085938 136.363281 201.757812 136.894531 201.402344 C 137.421875 201.046875 137.933594 200.667969 138.425781 200.261719 C 138.917969 199.855469 139.386719 199.425781 139.835938 198.976562 C 140.289062 198.523438 140.714844 198.050781 141.117188 197.558594 C 141.519531 197.0625 141.898438 196.550781 142.253906 196.019531 C 142.605469 195.488281 142.929688 194.941406 143.230469 194.378906 C 143.53125 193.816406 143.800781 193.242188 144.042969 192.652344 C 144.285156 192.0625 144.5 191.460938 144.683594 190.851562 C 144.867188 190.242188 145.019531 189.621094 145.140625 188.996094 C 145.265625 188.371094 145.355469 187.742188 145.417969 187.105469 C 145.480469 186.472656 145.507812 185.835938 145.507812 185.199219 C 145.503906 184.5625 145.472656 183.929688 145.410156 183.292969 C 145.34375 182.660156 145.25 182.035156 145.125 181.410156 C 145 180.785156 144.84375 180.171875 144.65625 179.5625 C 144.472656 178.953125 144.257812 178.355469 144.011719 177.769531 C 143.769531 177.179688 143.496094 176.605469 143.195312 176.046875 C 142.894531 175.484375 142.566406 174.941406 142.210938 174.414062 C 141.855469 173.886719 141.476562 173.375 141.074219 172.882812 C 140.667969 172.394531 140.242188 171.921875 139.792969 171.472656 C 139.339844 171.023438 138.871094 170.597656 138.378906 170.195312 C 137.886719 169.792969 137.375 169.414062 136.84375 169.0625 C 136.316406 168.707031 135.769531 168.382812 135.210938 168.082031 C 134.648438 167.78125 134.074219 167.511719 133.484375 167.269531 C 132.898438 167.027344 132.300781 166.8125 131.691406 166.628906 C 131.082031 166.441406 130.464844 166.289062 129.84375 166.164062 C 129.21875 166.042969 128.589844 165.949219 127.957031 165.886719 C 127.324219 165.824219 126.6875 165.792969 126.050781 165.792969 Z M 126.050781 188.683594 C 125.386719 188.679688 124.726562 188.613281 124.074219 188.484375 C 123.421875 188.351562 122.785156 188.160156 122.171875 187.902344 C 121.554688 187.648438 120.972656 187.332031 120.417969 186.960938 C 119.867188 186.589844 119.355469 186.167969 118.882812 185.699219 C 118.414062 185.226562 117.992188 184.710938 117.625 184.15625 C 117.253906 183.601562 116.945312 183.019531 116.691406 182.402344 C 116.4375 181.785156 116.246094 181.152344 116.117188 180.496094 C 115.988281 179.84375 115.921875 179.183594 115.921875 178.519531 C 115.925781 177.851562 115.992188 177.191406 116.121094 176.539062 C 116.253906 175.886719 116.445312 175.25 116.703125 174.636719 C 116.957031 174.019531 117.269531 173.4375 117.640625 172.882812 C 118.011719 172.332031 118.433594 171.816406 118.90625 171.347656 C 119.378906 170.878906 119.890625 170.457031 120.445312 170.089844 C 121 169.71875 121.585938 169.40625 122.199219 169.152344 C 122.816406 168.898438 123.453125 168.707031 124.105469 168.578125 C 124.757812 168.449219 125.417969 168.386719 126.085938 168.386719 C 126.75 168.386719 127.410156 168.453125 128.0625 168.582031 C 128.71875 168.714844 129.351562 168.90625 129.964844 169.164062 C 130.582031 169.417969 131.167969 169.730469 131.71875 170.101562 C 132.273438 170.472656 132.785156 170.894531 133.257812 171.367188 C 133.726562 171.839844 134.144531 172.351562 134.515625 172.90625 C 134.886719 173.460938 135.199219 174.042969 135.453125 174.660156 C 135.707031 175.277344 135.898438 175.910156 136.027344 176.5625 C 136.15625 177.21875 136.222656 177.878906 136.21875 178.542969 C 136.21875 179.210938 136.152344 179.871094 136.023438 180.523438 C 135.890625 181.179688 135.699219 181.8125 135.441406 182.429688 C 135.1875 183.042969 134.875 183.628906 134.503906 184.183594 C 134.132812 184.738281 133.710938 185.25 133.238281 185.71875 C 132.765625 186.191406 132.25 186.613281 131.695312 186.980469 C 131.140625 187.351562 130.554688 187.664062 129.941406 187.917969 C 129.324219 188.171875 128.6875 188.363281 128.035156 188.492188 C 127.378906 188.621094 126.71875 188.683594 126.050781 188.683594 Z M 126.050781 188.683594 " fill-opacity="1" fill-rule="evenodd"/><path fill="#000000" d="M 248.917969 165.792969 C 248.28125 165.792969 247.644531 165.820312 247.007812 165.882812 C 246.375 165.945312 245.742188 166.035156 245.117188 166.160156 C 244.492188 166.28125 243.875 166.4375 243.261719 166.621094 C 242.652344 166.804688 242.050781 167.019531 241.460938 167.261719 C 240.871094 167.503906 240.296875 167.777344 239.734375 168.074219 C 239.171875 168.375 238.625 168.703125 238.09375 169.054688 C 237.5625 169.410156 237.050781 169.789062 236.554688 170.191406 C 236.0625 170.597656 235.589844 171.023438 235.140625 171.472656 C 234.6875 171.925781 234.257812 172.394531 233.855469 172.886719 C 233.449219 173.378906 233.070312 173.890625 232.714844 174.421875 C 232.359375 174.953125 232.03125 175.496094 231.730469 176.058594 C 231.429688 176.621094 231.15625 177.199219 230.910156 177.785156 C 230.667969 178.375 230.453125 178.976562 230.265625 179.585938 C 230.078125 180.195312 229.925781 180.8125 229.800781 181.4375 C 229.675781 182.0625 229.582031 182.695312 229.519531 183.328125 C 229.457031 183.964844 229.421875 184.601562 229.421875 185.238281 C 229.421875 185.875 229.453125 186.511719 229.515625 187.144531 C 229.578125 187.78125 229.671875 188.410156 229.796875 189.035156 C 229.921875 189.664062 230.074219 190.28125 230.261719 190.890625 C 230.445312 191.5 230.660156 192.101562 230.902344 192.691406 C 231.148438 193.28125 231.417969 193.855469 231.71875 194.417969 C 232.019531 194.980469 232.347656 195.527344 232.703125 196.058594 C 233.058594 196.585938 233.4375 197.097656 233.839844 197.589844 C 234.246094 198.085938 234.675781 198.558594 235.125 199.007812 C 235.578125 199.457031 236.046875 199.886719 236.542969 200.289062 C 237.035156 200.695312 237.546875 201.074219 238.078125 201.429688 C 238.605469 201.78125 239.152344 202.109375 239.714844 202.410156 C 240.277344 202.710938 240.855469 202.980469 241.445312 203.226562 C 242.035156 203.46875 242.632812 203.683594 243.246094 203.867188 C 243.855469 204.054688 244.472656 204.207031 245.097656 204.332031 C 245.722656 204.457031 246.355469 204.546875 246.988281 204.609375 C 247.625 204.671875 248.261719 204.703125 248.898438 204.703125 C 249.535156 204.703125 250.171875 204.667969 250.804688 204.605469 C 251.441406 204.542969 252.070312 204.449219 252.695312 204.324219 C 253.320312 204.199219 253.941406 204.042969 254.550781 203.855469 C 255.160156 203.671875 255.757812 203.457031 256.347656 203.210938 C 256.9375 202.964844 257.511719 202.691406 258.074219 202.390625 C 258.636719 202.089844 259.183594 201.761719 259.710938 201.40625 C 260.242188 201.050781 260.753906 200.671875 261.246094 200.265625 C 261.738281 199.859375 262.207031 199.429688 262.660156 198.980469 C 263.109375 198.527344 263.535156 198.054688 263.941406 197.5625 C 264.34375 197.066406 264.722656 196.554688 265.074219 196.023438 C 265.429688 195.492188 265.753906 194.945312 266.054688 194.382812 C 266.355469 193.820312 266.625 193.242188 266.867188 192.652344 C 267.109375 192.0625 267.324219 191.464844 267.507812 190.851562 C 267.691406 190.242188 267.84375 189.625 267.96875 189 C 268.089844 188.371094 268.183594 187.742188 268.242188 187.109375 C 268.304688 186.472656 268.335938 185.835938 268.332031 185.199219 C 268.332031 184.5625 268.300781 183.929688 268.234375 183.296875 C 268.171875 182.664062 268.078125 182.039062 267.953125 181.414062 C 267.828125 180.792969 267.671875 180.175781 267.484375 179.570312 C 267.300781 178.960938 267.085938 178.363281 266.84375 177.777344 C 266.597656 177.191406 266.324219 176.617188 266.027344 176.058594 C 265.726562 175.496094 265.398438 174.953125 265.046875 174.425781 C 264.691406 173.898438 264.3125 173.386719 263.910156 172.898438 C 263.507812 172.40625 263.082031 171.9375 262.632812 171.488281 C 262.183594 171.039062 261.710938 170.613281 261.222656 170.207031 C 260.730469 169.804688 260.21875 169.429688 259.691406 169.074219 C 259.164062 168.722656 258.621094 168.394531 258.058594 168.09375 C 257.5 167.796875 256.925781 167.523438 256.339844 167.28125 C 255.753906 167.035156 255.15625 166.820312 254.546875 166.636719 C 253.941406 166.453125 253.324219 166.296875 252.703125 166.171875 C 252.078125 166.046875 251.449219 165.953125 250.820312 165.890625 C 250.1875 165.828125 249.550781 165.792969 248.917969 165.792969 Z M 248.917969 188.683594 C 248.25 188.683594 247.589844 188.617188 246.9375 188.488281 C 246.285156 188.355469 245.648438 188.164062 245.03125 187.910156 C 244.417969 187.65625 243.832031 187.339844 243.277344 186.972656 C 242.722656 186.601562 242.210938 186.179688 241.742188 185.707031 C 241.269531 185.238281 240.847656 184.726562 240.476562 184.171875 C 240.109375 183.617188 239.796875 183.03125 239.539062 182.414062 C 239.285156 181.800781 239.09375 181.164062 238.964844 180.511719 C 238.832031 179.859375 238.769531 179.199219 238.769531 178.53125 C 238.769531 177.863281 238.835938 177.203125 238.964844 176.550781 C 239.09375 175.898438 239.289062 175.261719 239.542969 174.648438 C 239.796875 174.03125 240.113281 173.445312 240.480469 172.890625 C 240.851562 172.339844 241.273438 171.824219 241.746094 171.355469 C 242.214844 170.882812 242.730469 170.464844 243.285156 170.09375 C 243.839844 169.722656 244.421875 169.410156 245.039062 169.15625 C 245.65625 168.902344 246.289062 168.710938 246.945312 168.578125 C 247.597656 168.449219 248.257812 168.386719 248.925781 168.386719 C 249.589844 168.386719 250.25 168.453125 250.902344 168.582031 C 251.558594 168.710938 252.191406 168.90625 252.808594 169.160156 C 253.421875 169.417969 254.007812 169.730469 254.5625 170.101562 C 255.117188 170.472656 255.628906 170.890625 256.097656 171.363281 C 256.570312 171.835938 256.992188 172.347656 257.359375 172.902344 C 257.730469 173.457031 258.042969 174.042969 258.296875 174.660156 C 258.550781 175.273438 258.742188 175.910156 258.871094 176.5625 C 259 177.21875 259.066406 177.878906 259.066406 178.542969 C 259.066406 179.210938 259 179.871094 258.867188 180.523438 C 258.738281 181.175781 258.546875 181.808594 258.289062 182.425781 C 258.035156 183.039062 257.722656 183.625 257.351562 184.175781 C 256.980469 184.730469 256.5625 185.242188 256.089844 185.714844 C 255.617188 186.183594 255.105469 186.605469 254.550781 186.972656 C 254 187.34375 253.414062 187.65625 252.796875 187.910156 C 252.183594 188.164062 251.550781 188.359375 250.894531 188.488281 C 250.242188 188.617188 249.582031 188.683594 248.917969 188.683594 Z M 248.917969 188.683594 " fill-opacity="1" fill-rule="evenodd"/><g clip-path="url(#876875fcab)"><path fill="#ffffff" d="M 151.414062 246.605469 C 152.46875 247.65625 154.046875 247.65625 155.101562 246.605469 C 155.101562 246.605469 165.902344 236.859375 187.5 236.859375 C 209.097656 236.859375 219.894531 246.605469 219.894531 246.605469 C 220.421875 247.128906 220.949219 247.394531 221.738281 247.394531 C 222.527344 247.394531 223.054688 247.128906 223.582031 246.605469 C 224.636719 245.550781 224.636719 243.96875 223.582031 242.917969 C 223.054688 242.390625 211.464844 231.589844 187.5 231.589844 C 163.53125 231.589844 151.941406 242.390625 151.414062 242.917969 C 150.359375 243.96875 150.359375 245.550781 151.414062 246.605469 Z M 151.414062 246.605469 " fill-opacity="1" fill-rule="nonzero"/></g><g clip-path="url(#65e89047c7)"><path fill="#ffffff" d="M 158.109375 143.574219 C 157.691406 143.574219 157.285156 143.511719 156.886719 143.382812 L 123.089844 132.625 C 122.835938 132.546875 122.597656 132.441406 122.367188 132.3125 C 122.136719 132.183594 121.921875 132.03125 121.71875 131.863281 C 121.519531 131.691406 121.335938 131.5 121.171875 131.292969 C 121.007812 131.089844 120.867188 130.867188 120.746094 130.632812 C 120.625 130.398438 120.53125 130.152344 120.457031 129.898438 C 120.382812 129.648438 120.335938 129.386719 120.316406 129.125 C 120.292969 128.863281 120.296875 128.601562 120.328125 128.339844 C 120.355469 128.074219 120.410156 127.820312 120.492188 127.566406 C 120.570312 127.316406 120.675781 127.074219 120.800781 126.84375 C 120.929688 126.613281 121.078125 126.398438 121.246094 126.195312 C 121.417969 125.992188 121.605469 125.808594 121.8125 125.644531 C 122.015625 125.480469 122.238281 125.335938 122.472656 125.214844 C 122.703125 125.09375 122.949219 124.992188 123.203125 124.921875 C 123.453125 124.847656 123.710938 124.796875 123.976562 124.773438 C 124.238281 124.75 124.5 124.753906 124.761719 124.78125 C 125.023438 124.808594 125.28125 124.863281 125.535156 124.941406 L 159.332031 135.695312 C 159.792969 135.84375 160.210938 136.0625 160.589844 136.359375 C 160.96875 136.65625 161.285156 137.007812 161.539062 137.417969 C 161.792969 137.824219 161.964844 138.265625 162.0625 138.738281 C 162.15625 139.210938 162.167969 139.683594 162.09375 140.160156 C 162.019531 140.632812 161.867188 141.082031 161.632812 141.503906 C 161.398438 141.921875 161.097656 142.289062 160.734375 142.601562 C 160.367188 142.914062 159.960938 143.15625 159.507812 143.324219 C 159.058594 143.488281 158.59375 143.574219 158.109375 143.574219 Z M 158.109375 143.574219 " fill-opacity="1" fill-rule="nonzero"/></g><g clip-path="url(#3e235e6610)"><path fill="#ffffff" d="M 216.964844 143.574219 C 216.484375 143.574219 216.019531 143.488281 215.566406 143.324219 C 215.117188 143.15625 214.707031 142.914062 214.34375 142.601562 C 213.976562 142.289062 213.675781 141.921875 213.441406 141.503906 C 213.207031 141.082031 213.054688 140.632812 212.980469 140.160156 C 212.90625 139.683594 212.917969 139.210938 213.015625 138.738281 C 213.109375 138.265625 213.285156 137.824219 213.539062 137.417969 C 213.789062 137.007812 214.105469 136.65625 214.488281 136.359375 C 214.867188 136.0625 215.285156 135.84375 215.742188 135.695312 L 249.542969 124.941406 C 249.792969 124.863281 250.050781 124.808594 250.3125 124.78125 C 250.574219 124.753906 250.839844 124.75 251.101562 124.773438 C 251.363281 124.796875 251.621094 124.847656 251.875 124.921875 C 252.128906 124.992188 252.371094 125.09375 252.605469 125.214844 C 252.839844 125.335938 253.058594 125.480469 253.265625 125.644531 C 253.46875 125.808594 253.660156 125.992188 253.828125 126.195312 C 253.996094 126.398438 254.144531 126.613281 254.273438 126.84375 C 254.402344 127.074219 254.503906 127.316406 254.585938 127.566406 C 254.664062 127.820312 254.71875 128.074219 254.75 128.339844 C 254.777344 128.601562 254.78125 128.863281 254.761719 129.125 C 254.738281 129.386719 254.691406 129.648438 254.617188 129.898438 C 254.546875 130.152344 254.449219 130.398438 254.328125 130.632812 C 254.210938 130.867188 254.066406 131.089844 253.902344 131.292969 C 253.738281 131.5 253.558594 131.691406 253.355469 131.863281 C 253.15625 132.03125 252.941406 132.183594 252.710938 132.3125 C 252.480469 132.441406 252.238281 132.546875 251.988281 132.625 L 218.1875 143.382812 C 217.792969 143.511719 217.382812 143.574219 216.964844 143.574219 Z M 216.964844 143.574219 " fill-opacity="1" fill-rule="nonzero"/></g></svg>